HIERARCHY
ROOT pelvis
{
  OFFSET 0 100 0
  CHANNELS 6 Xposition Yposition Zposition Zrotation Xrotation Yrotation
  JOINT pelvis_right_femur
  {
    OFFSET -10.78128 -3.44521 -0.5502486
    CHANNELS 3 Zrotation Xrotation Yrotation
    JOINT right_femur_tibia
    {
      OFFSET -0.8047443 -44.0398 -0.1307829
      CHANNELS 3 Zrotation Xrotation Yrotation
      JOINT right_tibia_foot
      {
        OFFSET 3.006224 -47.83518 -5
        CHANNELS 3 Zrotation Xrotation Yrotation
        End Site
        {
          OFFSET 0 -5 15
        }
      }
    }
  }
  JOINT pelvis_left_femur
  {
    OFFSET 10.78128 -3.44521 -0.5502486
    CHANNELS 3 Zrotation Xrotation Yrotation
    JOINT left_femur_tibia
    {
      OFFSET 0.8047443 -44.0398 -0.1307829
      CHANNELS 3 Zrotation Xrotation Yrotation
      JOINT left_tibia_foot
      {
        OFFSET -4.370144 -48.10324 -4.275266
        CHANNELS 3 Zrotation Xrotation Yrotation
        End Site
        {
          OFFSET 0 -5 15
        }
      }
    }
  }
  JOINT pelvis_spine1
  {
    OFFSET 0 6.468898 -3.129235
    CHANNELS 3 Zrotation Xrotation Yrotation
    JOINT spine1
    {
      OFFSET 0 23.15396 4.99043
      CHANNELS 3 Zrotation Xrotation Yrotation
      JOINT spine2
      {
        OFFSET 0 20.79997 -5.064912
        CHANNELS 3 Zrotation Xrotation Yrotation
        JOINT neck
        {
          OFFSET 0 14.38658 9.616178
          CHANNELS 3 Zrotation Xrotation Yrotation
          End Site
          {
            OFFSET 0 20 0
          }
        }
      }
      JOINT right_manubrium
      {
        OFFSET -5.722621 16.35077 3.967754
        CHANNELS 3 Zrotation Xrotation Yrotation
        JOINT right_clavicle
        {
          OFFSET -13.16364 1.694482 -4.693211
          CHANNELS 3 Zrotation Xrotation Yrotation
          JOINT right_humerus
          {
            OFFSET -28.5034 -0.3100689 -2.792744
            CHANNELS 3 Zrotation Xrotation Yrotation
            JOINT right_radius
            {
              OFFSET -25.15693 0.02248979 -1.271978
              CHANNELS 3 Zrotation Xrotation Yrotation
              End Site
              {
                OFFSET -15 0 0
              }
            }
          }
        }
      }
      JOINT left_manubrium
      {
        OFFSET 5.722621 16.35077 3.967754
        CHANNELS 3 Zrotation Xrotation Yrotation
        JOINT left_clavicle
        {
          OFFSET 13.16364 1.694482 -4.693211
          CHANNELS 3 Zrotation Xrotation Yrotation
          JOINT left_humerus
          {
            OFFSET 29.39168 -1.063119 -2.237045
            CHANNELS 3 Zrotation Xrotation Yrotation
            JOINT left_radius
            {
              OFFSET 24.59957 -0.9528479 0.9047498
              CHANNELS 3 Zrotation Xrotation Yrotation
              End Site
              {
                OFFSET 15 -0 -0
              }
            }
          }
        }
      }
    }
  }
}
MOTION
Frames: 15
Frame Time: 0.0416666666667
0 103.5113 0 -0.3565081 -0.4909876 -0.07080942 4.989194 -19.76872 11.11879 -0 40.38137 -0 -6.44901 -15.63445 -3.991241 -6.191681 10.3282 -22.72434 -0 5.564074 -0 8.980437 -17.24054 27.78363 -2.903797 -3.132523 4.629179 2.532021 9.511715 -7.733695 1.6377 21.92082 6.967099 2.955229 -25.69845 10.33379 6.331463 -19.95929 11.37815 85.51086 35.04538 -18.42776 -0 0 16.16635 -6.28783 8.364788 3.556832 5.985812 -20.03532 -1.119899 -94.62743 26.11237 22.69628 0 0 -13.40533 10.65198 17.89385 2.852933
0.2586631 104.0328 1.461537 -0.4471736 -0.7130991 -0.1303282 4.937442 -19.63473 10.97101 -0 40.71435 -0 -6.707993 -15.21033 -4.057159 -6.056527 10.48561 -22.49795 -0 5.566854 -0 8.328487 -17.50386 27.43078 -2.779294 -3.09325 4.53731 2.469927 9.528786 -7.771087 1.612728 22.00054 6.976683 2.944706 -25.68237 10.2853 6.110601 -19.97327 11.33422 85.79154 34.47631 -18.62105 -0 0 16.03897 -6.511045 8.249355 3.577425 5.957736 -20.23449 -1.219424 -94.72961 26.51129 22.77786 0 0 -13.42685 10.1301 18.12841 3.507732
0.5575237 104.4256 3.091945 -0.3288619 0.3530292 -0.1510666 5.386271 -21.84918 10.69008 -0 36.82992 -0 -5.988765 -15.03859 -3.526433 -6.362853 10.46161 -22.49261 -0 5.356459 -0 9.355461 -17.92555 27.44601 -2.964752 -2.940811 4.790143 2.653864 9.420631 -7.713997 1.68728 21.58072 7.057459 3.080692 -25.98687 10.43861 6.337553 -19.83205 11.37404 85.47889 35.57671 -18.64149 -0 0 16.01019 -6.178518 8.584385 3.62011 6.357929 -20.15242 -0.9722888 -94.17058 25.63285 22.18043 0 0 -14.82554 11.24709 17.29926 2.203196
0.8699977 104.642 4.995008 -0.3199492 0.9789344 -0.1200739 5.636395 -23.84967 9.881515 -0 33.31409 -0 -5.777626 -13.78075 -3.008545 -6.44824 10.75917 -21.86758 -0 5.268629 -0 9.464611 -18.58553 26.73666 -2.974302 -2.735521 4.823297 2.740006 9.441936 -7.743723 1.674163 21.30112 7.152495 3.195154 -26.1824 10.42988 6.14344 -19.68841 11.38582 85.76106 35.71383 -19.02113 -0 0 15.5484 -6.521103 8.779613 3.883464 6.695497 -20.50948 -0.9968673 -93.3682 24.97646 21.28106 0 0 -16.53091 11.84209 16.63886 1.470745
1.19232 104.7011 7.205958 -0.3648322 1.786219 -0.01663644 6.051523 -26.16853 9.19273 -0 29.44027 -0 -5.553678 -12.37286 -2.513286 -6.517738 11.19793 -21.23287 -0 5.318514 -0 9.416158 -19.42394 25.93328 -2.952414 -2.529696 4.855644 2.866402 9.414669 -7.809701 1.669546 20.95138 7.267192 3.325781 -26.49456 10.45516 5.936666 -19.51562 11.37726 86.10563 35.89209 -19.57063 -0 0 15.04057 -6.705643 8.951566 4.07153 7.051293 -20.88383 -0.9529031 -92.69229 24.52691 20.52837 0 0 -18.45394 12.1926 15.96436 1.070729
1.511145 104.5903 9.812197 -0.5081301 2.545981 0.1823326 6.482394 -28.64048 8.318738 -0 25.31793 -0 -5.541884 -10.45265 -2.019986 -6.475104 11.89663 -20.30581 -0 5.646337 -0 8.800325 -20.45998 24.67666 -2.815433 -2.294797 4.781452 2.980036 9.382486 -7.919409 1.640381 20.61416 7.407722 3.451391 -26.83531 10.46121 5.545286 -19.2743 11.328 86.71529 35.69439 -20.35149 -0 0 14.27707 -7.093031 9.106634 4.293972 7.405815 -21.43728 -0.961812 -91.94392 24.21297 19.65295 0 0 -20.60713 12.29451 15.38182 0.9520224
1.816768 104.3421 12.87688 -0.7634443 3.343323 0.4984608 7.015328 -31.11734 7.525077 -0 21.27834 -0 -5.676993 -8.357793 -1.583247 -6.339669 12.77608 -19.27319 -0 6.432147 -0 7.698707 -21.50911 23.09937 -2.572215 -2.064671 4.621585 3.103458 9.292802 -8.057776 1.605522 20.26837 7.569661 3.565695 -27.22684 10.49689 5.106304 -18.94148 11.23228 87.41832 35.38744 -21.25297 -0 0 13.37276 -7.451618 9.278902 4.465873 7.719079 -22.00306 -0.931271 -91.27726 24.09088 18.84186 0 0 -22.71885 12.15972 14.89323 1.123486
2.098689 104.0086 16.47905 -1.150641 4.099117 0.9488315 7.620936 -33.33858 6.806294 -0 17.63374 -0 -6.029744 -6.185329 -1.214859 -6.079947 13.79623 -18.10907 -0 7.979464 -0 6.009223 -22.32517 21.0992 -2.18872 -1.850985 4.333618 3.221438 9.145212 -8.215576 1.554144 19.94775 7.743941 3.652422 -27.59733 10.54261 4.645621 -18.47594 11.08474 88.18437 34.99178 -22.201 -0 0 12.29947 -7.828664 9.500653 4.616197 7.939132 -22.52963 -0.8778022 -90.64876 24.09403 18.03825 0 0 -24.60044 11.83872 14.49109 1.494637
2.352314 103.6909 20.68706 -1.679614 4.753676 1.533661 8.308598 -34.89436 6.281791 -0 14.92658 -0 -6.620564 -4.234569 -0.9445376 -5.681309 14.77371 -16.89246 -0 10.67279 -0 3.790581 -22.489 18.72312 -1.641794 -1.683287 3.91008 3.324447 8.949632 -8.378018 1.47545 19.67427 7.91409 3.697176 -27.86942 10.57466 4.274196 -17.87018 10.90173 88.89616 34.68793 -23.05842 -0 0 11.14012 -8.175505 9.807898 4.770857 7.985047 -22.88527 -0.795578 -90.10692 24.16627 17.33299 0 0 -25.93464 11.36868 14.12299 2.018324
2.583644 103.5346 25.54446 -2.333137 5.167801 2.212349 9.024294 -35.25311 5.974227 -0 13.673 -0 -7.471392 -2.825283 -0.7916619 -5.134494 15.40309 -15.65696 -0 14.97198 -0 1.20817 -21.5017 16.08883 -0.90917 -1.58479 3.374955 3.389613 8.76966 -8.531306 1.344677 19.48857 8.053661 3.684453 -27.9311 10.52573 4.075852 -17.1714 10.72627 89.47213 34.57997 -23.69028 -0 0 9.999803 -8.533783 10.2153 5.011541 7.768283 -22.98365 -0.7308933 -89.68067 24.20825 16.82422 0 0 -26.43962 10.77829 13.70965 2.664446
2.815098 103.7133 31.03005 -3.028683 5.171224 2.877447 9.639477 -33.92867 5.817739 -0 14.09302 -0 -8.537498 -2.272264 -0.7639239 -4.480897 15.23912 -14.42165 -0 21.24658 -0 -1.371221 -19.00541 13.48912 -0.01728721 -1.557826 2.845532 3.389836 8.721362 -8.658759 1.138967 19.43374 8.130733 3.614491 -27.68799 10.30872 4.091743 -16.51454 10.63224 89.86589 34.68397 -23.99939 -0 0 9.034235 -8.985485 10.69238 5.42583 7.238387 -22.82374 -0.7620049 -89.42278 24.13254 16.66902 0 0 -25.98908 10.07853 13.17499 3.456514
3.078921 104.3756 37.02085 -3.576073 4.586103 3.353003 9.925751 -30.74075 5.611058 -0 15.71658 -0 -9.693067 -2.709189 -0.8523048 -3.841541 13.85259 -13.15987 -0 29.57641 -0 -3.499376 -15.16599 11.3107 0.8947871 -1.552126 2.540705 3.294393 8.925243 -8.725815 0.8682229 19.56845 8.108099 3.516207 -27.09019 9.856196 4.251582 -16.06893 10.68717 90.1143 34.8379 -23.98533 -0 0 8.345171 -9.642311 11.14423 6.010257 6.447153 -22.55277 -0.9842432 -89.3477 23.90377 16.92935 0 0 -24.76242 9.315086 12.54436 4.368675
3.393653 105.5849 43.28266 -3.711981 3.330594 3.463657 9.672826 -25.94611 5.177476 -0 17.4497 -0 -10.73946 -3.981739 -1.029367 -3.379643 10.99723 -11.87359 -0 39.51324 -0 -4.857938 -10.83866 9.907061 1.554279 -1.458414 2.703523 3.074899 9.404609 -8.655704 0.6069204 19.95192 7.949479 3.449272 -26.15772 9.185765 4.423769 -15.92631 10.89666 90.26312 34.86377 -23.69095 -0 0 7.936433 -10.53152 11.46968 6.586563 5.562569 -22.36456 -1.431662 -89.43809 23.58348 17.50398 0 0 -23.12642 8.611108 12.01145 5.222946
3.741485 107.2842 49.51291 -3.265543 1.549686 3.157805 8.860559 -20.08076 4.539511 -0 18.17951 -0 -11.45789 -5.689532 -1.217279 -3.171722 6.616368 -10.656 -0 49.82571 -0 -5.397718 -7.170022 9.487371 1.682309 -1.162371 3.448219 2.716101 10.0451 -8.345978 0.4630612 20.57337 7.638739 3.471175 -25.00379 8.408213 4.54569 -16.07108 11.20022 90.22136 34.8375 -23.05234 -0 0 7.834291 -11.56051 11.67614 6.953147 4.796002 -22.30788 -1.999935 -89.71777 23.30878 18.28431 0 0 -21.36546 8.080718 11.81031 5.812683
4.075415 109.2804 55.43637 -2.318683 -0.3495818 2.560228 7.700934 -13.78061 3.860574 -0 17.29442 -0 -11.68571 -7.381736 -1.269338 -3.10656 0.8517539 -9.592927 -0 58.37653 -0 -5.281206 -4.957854 10.03482 1.193684 -0.6389387 4.646296 2.240471 10.66587 -7.756363 0.4864212 21.28919 7.200435 3.576797 -23.83609 7.655103 4.649302 -16.46683 11.52667 89.75579 35.06299 -21.87338 -0 0 8.200122 -12.64314 11.88491 7.174987 4.308545 -22.25736 -2.466264 -90.22108 23.18185 19.27353 0 0 -19.67004 7.706093 11.9534 6.130502
